<?xml version="1.0" encoding="UTF-8" ?>
<!DOCTYPE svg PUBLIC "-//W3C//DTD SVG 1.1//EN" "http://www.w3.org/Graphics/SVG/1.1/DTD/svg11.dtd">
<svg width="179pt" height="152pt" viewBox="0 0 179 152" version="1.1" xmlns="http://www.w3.org/2000/svg">
<path fill="#fefefe" d=" M 0.00 0.00 L 179.00 0.00 L 179.00 152.00 L 0.00 152.00 L 0.00 0.00 Z" />
<path fill="#616566" d=" M 63.32 25.39 C 70.56 18.50 81.49 14.25 91.30 17.76 C 95.38 19.04 98.23 22.35 100.95 25.46 C 103.59 25.90 106.23 26.31 108.85 26.87 C 115.90 19.32 126.78 15.74 136.92 17.76 C 146.28 17.88 155.94 19.69 165.02 16.55 C 161.33 21.09 157.05 25.19 154.02 30.23 C 150.88 35.79 148.20 41.93 143.10 46.01 C 140.50 48.28 137.46 49.94 134.46 51.59 C 135.85 60.24 135.65 70.41 128.93 76.93 C 125.45 80.95 120.21 82.45 115.17 83.32 C 113.42 85.44 111.68 87.57 109.92 89.68 C 111.13 94.71 111.97 100.04 110.31 105.08 C 108.18 114.72 100.39 121.40 95.52 129.61 C 93.08 133.26 91.65 137.42 90.15 141.50 C 89.15 138.56 88.57 135.48 87.37 132.60 C 84.27 125.02 78.69 118.68 76.13 110.86 C 74.80 106.90 74.85 102.68 74.94 98.56 C 66.15 96.65 58.19 90.39 55.10 81.85 C 53.29 76.83 54.57 71.45 56.69 66.76 C 55.64 64.19 54.70 61.58 53.80 58.96 C 48.69 57.82 43.70 55.77 39.85 52.14 C 33.28 46.71 31.02 38.16 27.07 30.96 C 24.84 26.03 21.57 21.70 17.94 17.72 C 22.28 18.21 26.55 19.24 30.93 19.43 C 37.64 19.84 44.42 18.94 51.10 20.04 C 55.55 20.74 59.63 22.87 63.32 25.39 Z" />
<path fill="#fefefe" d=" M 64.98 25.23 C 70.71 21.55 76.84 17.66 83.95 17.93 C 92.92 17.32 101.75 24.78 101.99 33.90 C 102.64 41.86 96.60 49.25 89.16 51.45 C 84.99 52.82 80.56 51.98 76.42 50.96 C 76.71 49.63 76.98 48.31 77.24 46.98 C 80.32 43.65 85.13 44.88 88.85 42.96 C 91.43 41.06 94.00 38.40 94.10 35.00 C 93.78 30.98 91.22 26.71 87.01 25.92 C 81.91 24.52 76.75 26.79 72.58 29.60 C 69.67 32.44 65.60 28.28 64.98 25.23 Z" />
<path fill="#fefefe" d=" M 111.01 27.15 C 116.20 21.83 123.55 18.57 131.02 18.66 C 141.00 18.71 150.99 20.92 160.95 19.24 C 157.60 22.88 154.53 26.82 152.10 31.15 C 148.62 37.11 145.15 43.54 139.01 47.18 C 133.29 51.18 126.18 51.66 119.56 53.08 C 118.35 50.70 117.09 48.35 115.85 46.00 C 121.13 44.57 126.90 44.62 131.74 41.80 C 134.09 40.04 135.72 37.54 137.55 35.29 C 137.78 30.69 133.77 26.20 129.01 26.79 C 124.99 26.61 121.76 29.22 118.28 30.74 C 115.70 29.88 113.37 28.45 111.01 27.15 Z" />
<path fill="#fefefe" d=" M 21.68 19.81 C 33.81 22.87 47.12 18.29 58.58 24.27 C 64.20 27.29 68.13 32.52 72.59 36.94 C 70.85 38.81 69.22 40.78 67.73 42.85 C 62.75 39.36 59.44 33.71 53.63 31.38 C 50.55 30.13 46.14 29.95 44.02 32.99 C 41.78 35.56 42.20 39.51 43.85 42.28 C 45.74 45.89 49.64 47.60 52.71 50.01 C 52.98 52.46 52.88 54.92 52.88 57.38 C 47.21 56.08 42.18 52.73 38.23 48.53 C 31.09 39.90 29.07 28.29 21.68 19.81 Z" />
<path fill="#fefefe" d=" M 71.09 33.04 C 75.22 29.11 80.65 26.45 86.46 26.87 C 81.96 29.07 77.88 32.00 73.95 35.08 C 73.23 34.57 71.80 33.55 71.09 33.04 Z" />
<path fill="#fefefe" d=" M 101.97 27.09 C 112.15 27.97 122.00 33.41 128.26 41.51 C 125.29 42.28 122.40 43.56 119.32 43.77 C 117.26 41.86 115.49 39.55 112.94 38.26 C 110.04 36.45 106.59 35.93 103.56 34.41 C 103.26 32.87 103.21 31.29 103.07 29.72 C 102.70 28.84 102.33 27.97 101.97 27.09 Z" />
<path fill="#fefefe" d=" M 123.52 29.20 C 126.35 28.42 129.53 27.20 132.35 28.70 C 135.36 29.69 137.17 34.21 134.77 36.64 C 133.44 38.41 131.72 39.82 130.05 41.26 C 126.85 37.82 123.39 34.64 120.11 31.28 C 121.24 30.59 122.38 29.89 123.52 29.20 Z" />
<path fill="#fefefe" d=" M 78.64 33.74 C 81.41 32.08 83.75 29.61 86.88 28.64 C 89.22 27.76 90.47 30.34 92.00 31.59 C 92.00 32.90 92.00 34.20 92.00 35.50 C 86.30 37.12 81.08 40.60 77.73 45.52 C 74.43 50.36 70.00 54.53 64.57 56.87 C 63.94 54.28 63.32 51.63 63.84 48.96 C 70.15 45.28 72.63 37.76 78.64 33.74 Z" />
<path fill="#fefefe" d=" M 46.46 31.98 C 50.20 31.61 53.75 32.77 57.04 34.43 C 54.60 38.49 52.31 42.78 52.68 47.69 C 47.72 45.21 43.22 40.51 43.86 34.55 C 44.73 33.69 45.59 32.84 46.46 31.98 Z" />
<path fill="#fefefe" d=" M 58.08 35.85 C 60.05 37.75 61.93 39.74 63.76 41.77 C 61.14 47.49 61.54 54.03 63.70 59.82 C 61.56 61.49 59.49 63.25 57.47 65.07 C 54.97 58.10 52.67 50.58 54.71 43.18 C 55.63 40.65 56.88 38.25 58.08 35.85 Z" />
<path fill="#fefefe" d=" M 81.54 43.04 C 84.45 40.62 87.79 38.68 91.48 37.72 C 89.85 41.69 85.62 43.38 81.54 43.04 Z" />
<path fill="#fefefe" d=" M 94.70 50.48 C 99.54 47.47 102.45 42.56 103.90 37.17 C 103.91 40.65 103.67 44.22 104.90 47.55 C 102.47 49.64 100.26 51.97 98.04 54.27 C 94.76 59.79 95.11 67.16 98.06 72.76 C 99.91 75.35 102.08 77.70 103.93 80.30 C 100.23 78.43 97.07 75.57 93.00 74.45 C 93.00 73.47 93.01 72.50 93.01 71.53 C 90.64 65.21 85.83 59.56 79.14 57.72 C 75.64 56.16 71.80 57.14 68.33 58.26 C 67.01 58.63 65.67 58.94 64.32 59.19 C 65.68 58.11 67.12 57.14 68.62 56.27 C 70.52 54.91 72.22 53.24 74.28 52.12 C 78.50 52.49 82.66 54.50 86.93 53.34 C 89.77 53.19 92.21 51.67 94.70 50.48 Z" />
<path fill="#fefefe" d=" M 109.10 53.80 C 106.43 48.65 104.78 42.83 105.78 37.01 C 108.05 37.76 110.49 38.15 112.62 39.29 C 114.25 42.14 114.11 45.65 115.64 48.58 C 118.99 55.44 120.23 63.37 118.54 70.86 C 116.42 72.45 113.26 71.28 110.78 71.14 C 110.96 65.34 111.94 59.17 109.10 53.80 Z" />
<path fill="#fefefe" d=" M 115.06 42.55 C 116.41 42.16 116.92 42.67 116.58 44.07 C 115.22 44.52 114.71 44.02 115.06 42.55 Z" />
<path fill="#fefefe" d=" M 64.11 46.00 C 63.29 44.71 65.01 42.31 66.44 43.31 C 67.38 44.55 65.37 46.61 64.11 46.00 Z" />
<path fill="#fefefe" d=" M 97.04 60.79 C 98.80 56.45 101.15 52.16 105.31 49.67 C 106.69 51.73 107.86 53.92 108.47 56.32 C 106.61 59.08 104.80 62.26 105.28 65.72 C 105.88 70.35 110.41 73.61 114.89 73.82 C 119.28 73.62 122.59 70.21 124.73 66.68 C 126.68 62.61 126.04 57.95 125.46 53.65 C 127.93 53.16 130.36 52.43 132.88 52.16 C 137.23 63.70 130.25 79.84 117.02 81.13 C 105.78 82.84 95.20 71.96 97.04 60.79 Z" />
<path fill="#fefefe" d=" M 119.95 55.50 C 121.16 54.99 122.37 54.44 123.58 53.91 C 124.56 57.79 125.26 61.76 123.76 65.62 C 122.66 67.29 121.46 68.88 120.20 70.42 C 120.32 65.44 120.67 60.46 119.95 55.50 Z" />
<path fill="#fefefe" d=" M 56.27 70.97 C 59.55 62.35 69.58 56.95 78.54 59.57 C 85.65 61.24 90.67 67.89 92.09 74.81 C 89.44 74.68 86.44 75.55 84.00 74.22 C 81.74 72.07 80.61 68.73 77.61 67.34 C 71.95 64.42 64.35 68.65 63.62 74.90 C 62.92 79.59 66.23 83.65 69.78 86.23 C 72.27 87.72 75.07 88.59 77.59 90.03 C 77.10 92.46 76.24 94.80 75.52 97.17 C 68.48 95.82 62.45 91.25 58.42 85.44 C 55.44 81.30 55.23 75.79 56.27 70.97 Z" />
<path fill="#fefefe" d=" M 108.95 57.79 C 110.32 61.90 110.07 66.28 109.77 70.53 C 108.21 68.57 106.98 66.39 105.86 64.16 C 106.84 62.01 107.84 59.87 108.95 57.79 Z" />
<path fill="#fefefe" d=" M 71.86 67.96 C 75.99 67.47 79.11 70.33 81.53 73.27 C 77.72 72.80 74.60 70.47 71.86 67.96 Z" />
<path fill="#fefefe" d=" M 64.80 74.82 C 66.23 72.68 67.91 70.73 69.72 68.91 C 74.39 73.30 80.56 75.91 86.98 76.13 C 92.55 76.37 98.22 77.55 102.53 81.34 C 100.49 83.01 98.50 84.90 95.98 85.81 C 89.37 83.40 82.09 84.35 75.55 81.63 C 71.33 80.52 67.97 77.67 64.80 74.82 Z" />
<path fill="#fefefe" d=" M 64.43 77.48 C 69.24 80.03 73.69 83.42 79.12 84.58 C 78.74 85.90 78.34 87.22 77.92 88.53 C 77.38 88.15 76.31 87.38 75.77 87.00 C 75.21 86.99 74.11 86.98 73.56 86.97 C 69.82 84.61 66.33 81.55 64.43 77.48 Z" />
<path fill="#fefefe" d=" M 89.26 90.12 C 95.37 88.52 101.24 85.72 105.38 80.82 C 108.03 81.63 110.66 82.47 113.32 83.24 C 107.22 91.70 97.40 97.03 87.04 97.92 C 87.70 95.29 88.48 92.71 89.26 90.12 Z" />
<path fill="#fefefe" d=" M 80.81 85.22 C 83.57 85.43 86.34 85.54 89.10 85.65 C 87.71 91.68 84.30 97.44 85.10 103.81 C 85.91 106.83 87.50 110.55 90.97 111.15 C 93.95 111.72 96.86 110.06 98.90 108.02 C 102.09 104.50 102.10 99.47 102.18 95.00 C 104.20 93.47 106.33 92.10 108.48 90.76 C 111.52 98.98 109.40 108.32 104.21 115.20 C 99.15 122.06 93.85 128.80 90.26 136.60 C 87.50 126.26 79.31 118.41 76.85 107.99 C 74.99 100.13 78.74 92.63 80.81 85.22 Z" />
<path fill="#fefefe" d=" M 90.15 87.77 C 88.95 86.25 91.63 84.87 92.68 86.10 C 93.91 87.58 91.17 88.95 90.15 87.77 Z" />
<path fill="#fefefe" d=" M 95.68 97.89 C 97.08 97.35 98.51 96.87 99.93 96.36 C 101.14 100.79 99.52 106.16 95.17 108.20 C 93.09 109.75 90.44 108.64 88.21 108.07 C 87.10 105.28 86.40 102.35 86.90 99.34 C 89.87 99.13 92.78 98.56 95.68 97.89 Z" />
</svg>
